<mxfile host="app.diagrams.net" agent="Mozilla/5.0 (Windows NT 10.0; Win64; x64; rv:130.0) Gecko/20100101 Firefox/130.0" version="24.8.4">
  <diagram name="第 1 页" id="jWbRn8kL4PXhj623EDyY">
    <mxGraphModel dx="794" dy="513" grid="1" gridSize="10" guides="1" tooltips="1" connect="1" arrows="1" fold="1" page="1" pageScale="1" pageWidth="1654" pageHeight="1169" math="0" shadow="0">
      <root>
        <mxCell id="0" />
        <mxCell id="1" parent="0" />
        <mxCell id="hAiebEWBo55PhnU47laI-3" value="" style="edgeStyle=orthogonalEdgeStyle;rounded=0;orthogonalLoop=1;jettySize=auto;html=1;endArrow=block;endFill=1;" edge="1" parent="1" source="hAiebEWBo55PhnU47laI-1" target="hAiebEWBo55PhnU47laI-2">
          <mxGeometry relative="1" as="geometry" />
        </mxCell>
        <mxCell id="hAiebEWBo55PhnU47laI-1" value="&lt;font style=&quot;font-size: 15px;&quot;&gt;系统安全&lt;/font&gt;" style="rounded=0;whiteSpace=wrap;html=1;" vertex="1" parent="1">
          <mxGeometry x="100" y="170" width="100" height="50" as="geometry" />
        </mxCell>
        <mxCell id="hAiebEWBo55PhnU47laI-5" value="" style="edgeStyle=orthogonalEdgeStyle;shape=connector;rounded=0;orthogonalLoop=1;jettySize=auto;html=1;strokeColor=default;align=center;verticalAlign=middle;fontFamily=Helvetica;fontSize=11;fontColor=default;labelBackgroundColor=default;endArrow=block;endFill=1;" edge="1" parent="1" source="hAiebEWBo55PhnU47laI-2" target="hAiebEWBo55PhnU47laI-4">
          <mxGeometry relative="1" as="geometry" />
        </mxCell>
        <mxCell id="hAiebEWBo55PhnU47laI-9" style="edgeStyle=orthogonalEdgeStyle;shape=connector;rounded=0;orthogonalLoop=1;jettySize=auto;html=1;entryX=0;entryY=0.5;entryDx=0;entryDy=0;strokeColor=default;align=center;verticalAlign=middle;fontFamily=Helvetica;fontSize=11;fontColor=default;labelBackgroundColor=default;endArrow=block;endFill=1;" edge="1" parent="1" source="hAiebEWBo55PhnU47laI-2" target="hAiebEWBo55PhnU47laI-8">
          <mxGeometry relative="1" as="geometry" />
        </mxCell>
        <mxCell id="hAiebEWBo55PhnU47laI-10" style="edgeStyle=orthogonalEdgeStyle;shape=connector;rounded=0;orthogonalLoop=1;jettySize=auto;html=1;entryX=0;entryY=0.5;entryDx=0;entryDy=0;strokeColor=default;align=center;verticalAlign=middle;fontFamily=Helvetica;fontSize=11;fontColor=default;labelBackgroundColor=default;endArrow=block;endFill=1;" edge="1" parent="1" source="hAiebEWBo55PhnU47laI-2" target="hAiebEWBo55PhnU47laI-7">
          <mxGeometry relative="1" as="geometry" />
        </mxCell>
        <mxCell id="hAiebEWBo55PhnU47laI-2" value="用户管理" style="rounded=0;whiteSpace=wrap;html=1;" vertex="1" parent="1">
          <mxGeometry x="240" y="170" width="100" height="50" as="geometry" />
        </mxCell>
        <mxCell id="hAiebEWBo55PhnU47laI-17" style="edgeStyle=orthogonalEdgeStyle;shape=connector;rounded=0;orthogonalLoop=1;jettySize=auto;html=1;entryX=0;entryY=0.5;entryDx=0;entryDy=0;strokeColor=default;align=center;verticalAlign=middle;fontFamily=Helvetica;fontSize=11;fontColor=default;labelBackgroundColor=default;endArrow=block;endFill=1;" edge="1" parent="1" source="hAiebEWBo55PhnU47laI-4" target="hAiebEWBo55PhnU47laI-16">
          <mxGeometry relative="1" as="geometry" />
        </mxCell>
        <mxCell id="hAiebEWBo55PhnU47laI-4" value="用户认证" style="rounded=0;whiteSpace=wrap;html=1;" vertex="1" parent="1">
          <mxGeometry x="380" y="170" width="100" height="50" as="geometry" />
        </mxCell>
        <mxCell id="hAiebEWBo55PhnU47laI-7" value="用户权限" style="rounded=0;whiteSpace=wrap;html=1;" vertex="1" parent="1">
          <mxGeometry x="380" y="230" width="100" height="50" as="geometry" />
        </mxCell>
        <mxCell id="hAiebEWBo55PhnU47laI-12" value="" style="edgeStyle=orthogonalEdgeStyle;shape=connector;rounded=0;orthogonalLoop=1;jettySize=auto;html=1;strokeColor=default;align=center;verticalAlign=middle;fontFamily=Helvetica;fontSize=11;fontColor=default;labelBackgroundColor=default;endArrow=block;endFill=1;" edge="1" parent="1" source="hAiebEWBo55PhnU47laI-8" target="hAiebEWBo55PhnU47laI-11">
          <mxGeometry relative="1" as="geometry" />
        </mxCell>
        <mxCell id="hAiebEWBo55PhnU47laI-8" value="用户信息" style="rounded=0;whiteSpace=wrap;html=1;" vertex="1" parent="1">
          <mxGeometry x="380" y="110" width="100" height="50" as="geometry" />
        </mxCell>
        <mxCell id="hAiebEWBo55PhnU47laI-11" value="增删查改信息" style="rounded=0;whiteSpace=wrap;html=1;" vertex="1" parent="1">
          <mxGeometry x="520" y="110" width="100" height="50" as="geometry" />
        </mxCell>
        <mxCell id="hAiebEWBo55PhnU47laI-16" value="注册、登录" style="rounded=0;whiteSpace=wrap;html=1;" vertex="1" parent="1">
          <mxGeometry x="520" y="170" width="100" height="50" as="geometry" />
        </mxCell>
      </root>
    </mxGraphModel>
  </diagram>
</mxfile>
